{
	"asset":{
		"generator":"Khronos glTF Blender I/O v3.6.27",
		"version":"2.0"
	},
	"scene":0,
	"scenes":[
		{
			"name":"Scene",
			"nodes":[
				0
			]
		}
	],
	"nodes":[
		{
			"mesh":0,
			"name":"Navmesh"
		}
	],
	"meshes":[
		{
			"name":"Navmesh.050",
			"primitives":[
				{
					"attributes":{
						"POSITION":0,
						"NORMAL":1
					},
					"indices":2
				}
			]
		}
	],
	"accessors":[
		{
			"bufferView":0,
			"componentType":5126,
			"count":1050,
			"max":[
				15.580198287963867,
				1.3733856678009033,
				25.67626190185547
			],
			"min":[
				-12.819802284240723,
				-0.32661449909210205,
				-8.423736572265625
			],
			"type":"VEC3"
		},
		{
			"bufferView":1,
			"componentType":5126,
			"count":1050,
			"type":"VEC3"
		},
		{
			"bufferView":2,
			"componentType":5123,
			"count":2499,
			"type":"SCALAR"
		}
	],
	"bufferViews":[
		{
			"buffer":0,
			"byteLength":12600,
			"byteOffset":0,
			"target":34962
		},
		{
			"buffer":0,
			"byteLength":12600,
			"byteOffset":12600,
			"target":34962
		},
		{
			"buffer":0,
			"byteLength":4998,
			"byteOffset":25200,
			"target":34963
		}
	],
	"buffers":[
		{
			"byteLength":30200,
			"uri":"blendernavmesh5.bin"
		}
	]
}
